<?xml version="1.0" standalone="no"?>
<!DOCTYPE svg PUBLIC "-//W3C//DTD SVG 20010904//EN"
 "http://www.w3.org/TR/2001/REC-SVG-20010904/DTD/svg10.dtd">
<svg version="1.0" xmlns="http://www.w3.org/2000/svg"
 width="231.000000pt" height="231.000000pt" viewBox="0 0 231.000000 231.000000"
 preserveAspectRatio="xMidYMid meet">
<metadata>
Created by potrace 1.14, written by Peter Selinger 2001-2017
</metadata>
<g transform="translate(0.000000,231.000000) scale(0.100000,-0.100000)"
fill="#000000" stroke="none">
<path d="M213 2202 c-34 -5 -73 -47 -74 -82 -3 -55 -4 -65 -14 -80 -15 -23
-15 -509 0 -540 15 -33 13 -794 -3 -859 -21 -88 -6 -430 20 -457 9 -8 61 16
87 39 l23 22 -6 -107 c-3 -59 -3 -115 0 -123 4 -9 19 -15 40 -15 42 0 40 -11
30 161 l-6 116 25 11 c15 7 36 10 48 7 15 -4 36 3 62 21 66 45 98 55 126 40
32 -16 46 -11 94 35 67 64 122 76 250 54 83 -14 140 -8 223 26 69 28 86 31
162 29 47 -1 112 -3 145 -3 68 -1 329 12 366 18 13 2 51 6 84 9 33 3 71 8 85
11 14 3 48 9 77 14 91 17 121 35 129 76 3 20 3 62 -1 93 -9 60 -9 606 -2 1050
3 148 1 265 -4 268 -5 3 -9 23 -9 44 0 53 -14 86 -47 107 -26 17 -78 18 -958
18 -511 1 -940 -1 -952 -3z"/>
</g>
</svg>
